REM GENRE "Progressive Viking Metal"
REM DATE 2024
REM DISCID 6A0CC408
REM COMMENT "ExactAudioCopy v1.6"
PERFORMER "Borknagar"
TITLE "Fall"
REM COMPOSER "Brun/Nedland/Hestnaes"
FILE "Borknagar - Fall.flac" WAVE
  TRACK 01 AUDIO
    TITLE "Summits"
    PERFORMER "Borknagar"
    REM COMPOSER "Brun"
    INDEX 01 00:00:00
  TRACK 02 AUDIO
    TITLE "Nordic Anthem"
    PERFORMER "Borknagar"
    REM COMPOSER "Nedland"
    INDEX 01 07:58:41
  TRACK 03 AUDIO
    TITLE "Afar"
    PERFORMER "Borknagar"
    REM COMPOSER "Brun"
    INDEX 01 13:13:10
  TRACK 04 AUDIO
    TITLE "Moon"
    PERFORMER "Borknagar"
    REM COMPOSER "Hestnaes"
    INDEX 01 20:07:56
  TRACK 05 AUDIO
    TITLE "Stars Ablaze"
    PERFORMER "Borknagar"
    REM COMPOSER "Brun"
    INDEX 01 25:59:33
  TRACK 06 AUDIO
    TITLE "Unraveling"
    PERFORMER "Borknagar"
    REM COMPOSER "Nedland"
    INDEX 01 34:26:13
  TRACK 07 AUDIO
    TITLE "The Wild Lingers"
    PERFORMER "Borknagar"
    REM COMPOSER "Brun"
    INDEX 01 38:59:53
  TRACK 08 AUDIO
    TITLE "Northward"
    PERFORMER "Borknagar"
    REM COMPOSER "Brun"
    INDEX 01 44:33:71
